<svg width="24" height="24" viewBox="0 0 24 24" fill="none" xmlns="http://www.w3.org/2000/svg">
<path d="M6.99922 13.0001H16.9992V11.0001H6.99922V13.0001ZM11.9992 22.0001C10.6159 22.0001 9.31589 21.7376 8.09922 21.2126C6.88255 20.6876 5.82422 19.9751 4.92422 19.0751C4.02422 18.1751 3.31172 17.1168 2.78672 15.9001C2.26172 14.6834 1.99922 13.3834 1.99922 12.0001C1.99922 10.6168 2.26172 9.31676 2.78672 8.10009C3.31172 6.88342 4.02422 5.82509 4.92422 4.92509C5.82422 4.02509 6.88255 3.31259 8.09922 2.78759C9.31589 2.26259 10.6159 2.00009 11.9992 2.00009C13.3826 2.00009 14.6826 2.26259 15.8992 2.78759C17.1159 3.31259 18.1742 4.02509 19.0742 4.92509C19.9742 5.82509 20.6867 6.88342 21.2117 8.10009C21.7367 9.31676 21.9992 10.6168 21.9992 12.0001C21.9992 13.3834 21.7367 14.6834 21.2117 15.9001C20.6867 17.1168 19.9742 18.1751 19.0742 19.0751C18.1742 19.9751 17.1159 20.6876 15.8992 21.2126C14.6826 21.7376 13.3826 22.0001 11.9992 22.0001Z" fill="white"/>
</svg>
