<svg width="24" height="24" viewBox="0 0 24 24" fill="none" xmlns="http://www.w3.org/2000/svg">
<path fill-rule="evenodd" clip-rule="evenodd" d="M12.8274 11.9627C12.9431 11.8922 13.0412 11.7443 13.1204 11.5801C14.1619 12.0058 14.8937 13.0116 14.8937 14.1847C14.8937 15.743 13.6021 17.0063 12.0088 17.0063C11.3547 17.0063 11.0116 16.95 10.4116 16.6292C10.07 16.4094 9.97823 16.2873 9.87135 16.2282C9.70559 16.1365 9.5969 16.0764 9.52883 16.0858C9.32984 16.1133 9.38763 16.2963 9.44011 16.4626C9.47577 16.5756 9.50898 16.6808 9.45757 16.7242C9.40375 16.7697 9.22949 16.6035 9.02586 16.4094C8.74867 16.1451 8.41706 15.8289 8.2607 15.9239C8.13706 15.999 8.2571 16.2027 8.40402 16.452L8.41493 16.4705C8.47701 16.5759 8.54893 16.6832 8.61457 16.7812C8.74799 16.9802 8.85547 17.1406 8.80168 17.1678C8.73669 17.2006 8.28384 16.8949 7.90219 16.4705C7.75488 16.3067 7.61219 16.1292 7.47961 15.9642C7.18938 15.6031 6.94759 15.3022 6.81186 15.3379C6.64858 15.3808 6.7721 15.7176 6.95358 16.0417C7.03845 16.1932 7.13829 16.3476 7.22474 16.4812C7.35916 16.689 7.4612 16.8467 7.42418 16.8661C7.37425 16.8922 6.93488 16.4638 6.63647 15.9239C6.45922 15.6032 6.31039 15.2488 6.1899 14.9619C6.05922 14.6507 5.96189 14.419 5.8978 14.3956C5.67511 14.3146 5.67511 14.7686 5.76442 15.4239C5.77607 15.5094 5.79342 15.5991 5.81478 15.6904C6.68092 18.4928 9.34161 20.5333 12.4896 20.5333C16.3401 20.5333 19.4616 17.4804 19.4616 13.7144C19.4616 10.13 16.634 7.19156 13.0414 6.91647C13.0459 6.7476 13.134 6.41276 13.134 6.41276C13.134 6.41276 13.7683 4.87823 13.8018 4.55032C13.804 4.52856 13.8066 4.50491 13.8094 4.47972C13.849 4.12542 13.9224 3.46666 13.3557 3.46666C13.0531 3.46666 12.9123 3.69181 12.7513 3.94932C12.6895 4.04818 12.6248 4.15181 12.5467 4.24929C11.9844 4.95145 11.0389 5.82829 10.5028 6.29543C9.36971 7.28281 8.25797 8.09427 7.6096 8.56753C7.31469 8.78279 7.11562 8.92809 7.05403 8.98813C6.58981 9.44066 4.92541 12.4429 4.92541 12.4429C4.92541 12.4429 4.38716 13.4061 4.57847 13.6014C4.76979 13.7968 5.23115 13.752 5.23115 13.752C5.23115 13.752 11.4292 12.3301 11.9841 12.2179C12.1335 12.1878 12.2389 12.1703 12.3199 12.157C12.5397 12.1207 12.5792 12.1141 12.8274 11.9627ZM8.44518 10.1355C8.11249 10.4517 7.56072 11.2065 7.56072 11.2065C7.56072 11.2065 8.58619 11.2697 9.15097 10.7329C9.71575 10.196 9.58634 9.28109 9.58634 9.28109C9.58634 9.28109 8.77787 9.81922 8.44518 10.1355Z" fill="white"/>
</svg>
