<svg width="24" height="24" viewBox="0 0 24 24" fill="none" xmlns="http://www.w3.org/2000/svg">
<path fill-rule="evenodd" clip-rule="evenodd" d="M10.4789 5.57637C9.88604 7.24596 9.2875 8.92119 9.14874 9.29955C8.90591 9.96197 8.78848 9.88065 5.99026 7.11127C3.40246 4.55028 2.38281 3.79525 2.38281 4.44016C2.38281 4.55282 2.9006 6.51493 3.53326 8.80034L4.68371 12.9555L3.95636 14.3812C3.07974 16.099 2.33703 19.1061 2.57048 19.9925C2.9205 21.3224 3.7741 21.459 11.7334 21.459C15.87 21.459 19.4445 21.3373 19.8548 21.1823C21.0706 20.7232 21.3066 19.788 20.7624 17.5834C20.5028 16.5313 19.9791 15.0419 19.598 14.273L18.9054 12.8756L20.0274 8.83874C21.2196 4.54943 21.2805 4.23517 20.9188 4.23517C20.792 4.23517 19.3782 5.52498 17.7774 7.10167C16.1279 8.7258 14.7639 9.85778 14.6303 9.71349C14.5003 9.57344 14.2333 8.95056 14.0369 8.32937C13.1773 5.61054 11.9788 2.54102 11.7769 2.54102C11.6558 2.54102 11.0717 3.90678 10.4789 5.57637ZM8.68128 13.3548C9.56473 14.4732 10.229 15.4835 10.1573 15.6001C10.0854 15.7167 9.20248 15.8119 8.19506 15.8119C6.1495 15.8119 6.10684 15.7534 6.6724 13.7309C6.89078 12.9499 6.89021 12.5512 6.6707 12.3332C6.5018 12.1655 6.36361 11.8631 6.36361 11.6612C6.36361 10.846 7.15692 11.426 8.68128 13.3548ZM17.1686 11.6612C17.1686 11.8631 17.031 12.1649 16.8627 12.3321C16.6446 12.5487 16.6787 13.0431 16.9824 14.0581C17.2161 14.8403 17.3324 15.5549 17.2408 15.6461C16.9181 15.9663 13.4722 15.8237 13.4722 15.4903C13.4722 15.0631 16.5479 11.2941 16.8965 11.2941C17.0461 11.2941 17.1686 11.4593 17.1686 11.6612ZM10.9131 16.9246C10.9131 17.0709 10.7851 17.2688 10.6287 17.3648C10.4724 17.4608 10.3444 17.3411 10.3444 17.0991C10.3444 16.8572 10.4724 16.6589 10.6287 16.6589C10.7851 16.6589 10.9131 16.7784 10.9131 16.9246ZM13.2091 17.019C13.1739 17.3567 12.7841 17.2911 12.6618 16.9272C12.5992 16.7408 12.7016 16.6392 12.8893 16.7013C13.0769 16.7634 13.2208 16.9063 13.2091 17.019ZM9.08448 17.9688C11.6791 18.4039 12.0178 18.4014 14.8103 17.9262L17.7782 17.421L18.3816 18.0205C19.0888 18.7224 18.8192 19.1957 18.0012 18.6883C17.5132 18.3856 17.3438 18.4437 16.7339 19.1225C16.0548 19.8784 16.0153 19.8874 15.6153 19.373C15.249 18.9026 14.7963 18.8399 11.7661 18.8399C8.73644 18.8399 8.28292 18.9029 7.91526 19.373C7.51377 19.8866 7.47425 19.877 6.82794 19.103C6.23025 18.3873 6.09263 18.3401 5.56261 18.6688C4.75878 19.1671 4.44259 18.7747 5.08236 18.0724C5.70478 17.3897 5.64251 17.3914 9.08448 17.9688Z" fill="white"/>
</svg>
