<svg width="24" height="24" viewBox="0 0 24 24" fill="none" xmlns="http://www.w3.org/2000/svg">
<path d="M10.5 2.5C12.7333 2.5 14.6248 3.2752 16.1748 4.8252C17.7248 6.3752 18.5 8.26667 18.5 10.5C18.5 11.4333 18.3498 12.3127 18.0498 13.1377C17.7498 13.9626 17.3331 14.7171 16.7998 15.4004L21.5 20.0996L20.0996 21.5L15.4004 16.7998C14.7171 17.3331 13.9626 17.7498 13.1377 18.0498C12.3127 18.3498 11.4333 18.5 10.5 18.5C8.26667 18.5 6.3752 17.7248 4.8252 16.1748C3.2752 14.6248 2.5 12.7333 2.5 10.5C2.5 8.26667 3.2752 6.3752 4.8252 4.8252C6.3752 3.2752 8.26667 2.5 10.5 2.5ZM6.5 9C5.67157 9 5 9.67157 5 10.5C5 11.3284 5.67157 12 6.5 12C7.32843 12 8 11.3284 8 10.5C8 9.67157 7.32843 9 6.5 9ZM10.5 9C9.67157 9 9 9.67157 9 10.5C9 11.3284 9.67157 12 10.5 12C11.3284 12 12 11.3284 12 10.5C12 9.67157 11.3284 9 10.5 9ZM14.5 9C13.6716 9 13 9.67157 13 10.5C13 11.3284 13.6716 12 14.5 12C15.3284 12 16 11.3284 16 10.5C16 9.67157 15.3284 9 14.5 9Z" fill="white"/>
</svg>
