<svg width="24" height="24" viewBox="0 0 24 24" fill="none" xmlns="http://www.w3.org/2000/svg">
<path d="M9.38242 9.63916C9.52188 9.63916 9.61936 9.77854 9.57187 9.90967L6.73788 17.7339C6.70905 17.8135 6.6331 17.8667 6.54843 17.8667H4.19101C4.05085 17.8666 3.9536 17.7265 4.00253 17.5952L6.93417 9.77002C6.9636 9.69177 7.03809 9.63936 7.12167 9.63916H9.38242ZM15.8727 6.1333C15.9582 6.1333 16.0349 6.18729 16.0631 6.26807L19.9977 17.5532C20.0432 17.6839 19.9457 17.8208 19.8072 17.8208H7.59335C7.52848 17.8208 7.48306 17.757 7.50449 17.6958L11.5484 6.26709C11.5769 6.18692 11.6528 6.13343 11.7379 6.1333H15.8727Z" fill="white"/>
</svg>
