<svg width="24" height="24" viewBox="0 0 24 24" fill="none" xmlns="http://www.w3.org/2000/svg">
<path d="M11.9995 4C16.4176 4 19.9993 7.16108 19.9995 11.0605C19.9995 13.1366 18.9837 15.003 17.3677 16.2949C17.4355 16.5722 17.4741 16.8681 17.4741 17.1758C17.474 18.7355 16.5312 19.9999 15.3686 20C14.6782 20 14.067 19.5531 13.6831 18.8643C13.2992 19.5527 12.6896 19.9999 11.9995 20C11.2424 20 10.5804 19.4629 10.2095 18.6582C9.83847 19.4625 9.1782 19.9999 8.42137 20C7.25871 20 6.31597 18.7356 6.3159 17.1758C6.3159 16.8148 6.36744 16.4697 6.45946 16.1523C4.94396 14.8675 3.9995 13.0618 3.9995 11.0605C3.99974 7.16108 7.58137 4 11.9995 4ZM11.895 7.61621C9.27892 7.61621 7.1577 9.22135 7.1577 11.2012C7.15782 13.1809 9.27899 14.7861 11.895 14.7861C14.5108 14.7859 16.6312 13.1808 16.6313 11.2012C16.6313 9.22146 14.5109 7.6164 11.895 7.61621Z" fill="white"/>
</svg>
