<svg width="24" height="24" viewBox="0 0 24 24" fill="none" xmlns="http://www.w3.org/2000/svg">
<path d="M8.93601 8.5047C6.81046 8.70327 2.9449 10.2918 3.52472 14.6603C4.10455 19.0288 7.39025 19.655 10.2893 19.4259C13.1883 19.1968 15.5078 15.4546 14.7346 16.0503C13.9613 16.646 12.2221 16.4474 12.2221 16.4474C14.617 15.1958 15.4572 14.6992 16.2808 13.4689C14.2138 14.0882 13.4344 14.1305 12.222 14.0646C16.667 12.6746 17.3648 11.0527 18.407 9.49754C14.6329 11.2796 13.3361 11.6336 12.0289 11.4832C17.8942 8.91478 19.3823 7.37157 20.5328 4.53334C15.534 7.00479 11.0615 8.30613 8.93601 8.5047Z" fill="white"/>
</svg>
