<svg width="24" height="24" viewBox="0 0 24 24" fill="none" xmlns="http://www.w3.org/2000/svg">
<path d="M11.6127 4.09937C11.6127 4.09937 13.0488 5.36573 13.4497 7.00073C13.8504 8.63572 12.524 10.8614 14.1899 10.7742C15.8555 10.6867 14.4077 8.11792 14.4077 8.11792C14.4077 8.11792 18.1871 10.105 17.9047 13.5789C17.6222 17.0525 13.7739 17.8425 13.7739 17.8425C13.7739 17.8425 14.7806 17.0163 14.976 16.3025C15.1703 15.5922 14.7953 14.1356 14.7915 14.1208C14.7866 14.142 14.513 15.3207 14.0874 15.7585C13.7209 16.1355 13.2714 16.3941 12.6274 16.4626C13.1537 16.207 13.517 15.6764 13.517 15.0603C13.517 14.1954 12.8032 13.4939 11.9233 13.4939C11.0436 13.4942 10.3305 14.1955 10.3305 15.0603C10.3305 15.2968 10.3854 15.5204 10.4809 15.7214C9.92945 15.2831 9.84224 14.5798 9.84224 14.5798C9.84224 14.5798 9.22731 17.1316 10.9204 18.3318C12.6136 19.532 15.9311 18.4998 15.9311 18.4998C15.9311 18.4998 11.1839 21.84 7.66646 18.2048C4.64979 15.0869 6.85633 10.9863 6.87544 10.9509C6.87325 10.9596 6.77879 11.3384 6.77876 11.7771C6.77876 12.2211 7.01997 12.5593 7.01997 12.5593C7.01997 12.5593 7.73759 11.0461 8.29634 10.4304C9.2323 9.39952 10.5888 8.71253 11.1206 8.11792C12.394 6.69343 11.6127 4.09937 11.6127 4.09937Z" fill="white"/>
</svg>
