<svg width="24" height="24" viewBox="0 0 24 24" fill="none" xmlns="http://www.w3.org/2000/svg">
<path d="M15.8303 5.06689C15.963 5.06698 16.086 5.13756 16.1525 5.25244L19.9523 11.8169C20.0192 11.9324 20.0193 12.0755 19.9523 12.1909L16.1525 18.7476C16.0859 18.8625 15.9631 18.9331 15.8303 18.9331H8.21113C8.07889 18.9331 7.95571 18.8636 7.88886 18.7495L4.04706 12.1919C3.97918 12.0757 3.97914 11.9321 4.04706 11.8159L7.88886 5.25146C7.95569 5.13729 8.07883 5.06689 8.21113 5.06689H15.8303ZM11.9982 8.26709C9.93643 8.26716 8.26484 9.93867 8.26484 12.0005C8.26497 14.0622 9.93652 15.7338 11.9982 15.7339C14.06 15.7339 15.7315 14.0622 15.7316 12.0005C15.7316 9.93863 14.0601 8.26709 11.9982 8.26709Z" fill="white"/>
</svg>
