<svg width="24" height="24" viewBox="0 0 24 24" fill="none" xmlns="http://www.w3.org/2000/svg">
<path d="M6.98633 7.94476C7.00037 7.96205 7.95198 9.13142 8.58203 9.58148C9.21032 10.03 10.5348 10.4889 10.5625 10.4985C10.5744 10.5264 11.7937 13.3925 11.2988 15.9741C10.8039 18.5537 8.7966 20.5922 8.77441 20.6147C8.73261 20.5901 4.53347 18.1128 4.5332 14.0112C4.53335 9.92096 6.9489 7.97467 6.98633 7.94476ZM17.0137 7.94476C17.0511 7.97467 19.4667 9.92096 19.4668 14.0112C19.4665 18.1128 15.2674 20.5901 15.2256 20.6147C15.2034 20.5922 13.1961 18.5537 12.7012 15.9741C12.2063 13.3925 13.4256 10.5264 13.4375 10.4985C13.4652 10.4889 14.7897 10.03 15.418 9.58148C16.048 9.13142 16.9996 7.96205 17.0137 7.94476ZM14.5117 3.72601C14.7651 3.36415 15.2641 3.27634 15.626 3.52972C15.9878 3.78312 16.0757 4.2821 15.8223 4.64398L14.5244 6.49554C15.3551 6.76068 15.9251 7.04594 15.9414 7.05414C15.9414 7.05414 14.5388 9.46625 12.1602 9.46625C9.78178 9.46598 8.0918 7.2182 8.0918 7.2182C8.10526 7.20964 8.70095 6.83237 9.5791 6.50824L8.16699 4.82562C7.88307 4.48725 7.92637 3.98266 8.26465 3.69867C8.60296 3.41479 9.10758 3.45919 9.3916 3.7973L11.1982 5.94965C11.2346 5.99303 11.2654 6.03932 11.291 6.08734C11.5034 6.06261 11.7198 6.04633 11.9385 6.04633C12.245 6.04633 12.5509 6.07201 12.8496 6.11176C12.8648 6.08319 12.8814 6.05496 12.9004 6.02777L14.5117 3.72601Z" fill="white"/>
</svg>
