<svg width="24" height="24" viewBox="0 0 24 24" fill="none" xmlns="http://www.w3.org/2000/svg">
<path fill-rule="evenodd" clip-rule="evenodd" d="M12.2197 19.9072C12.1465 19.9092 12.0731 19.9102 11.9995 19.9102C7.58122 19.9102 3.9995 16.3485 3.9995 11.9551C3.9995 7.56161 7.58122 4 11.9995 4C16.4178 4 19.9995 7.56161 19.9995 11.9551C19.9995 14.175 19.0851 16.1825 17.6104 17.6255C18.2555 17.8492 18.9122 18.0355 19.4241 18.1694C19.761 18.2575 19.8136 18.6902 19.4934 18.8264C18.1561 19.3953 15.4352 20.2913 12.2197 19.9072ZM10.8745 10.8193C10.8745 11.4918 10.3149 12.037 9.6245 12.037C8.93414 12.037 8.3745 11.4918 8.3745 10.8193C8.3745 10.3683 8.62621 9.9745 9.00024 9.76406C9.02178 10.3505 9.50665 10.8193 10.1016 10.8193H10.8745ZM14.1245 12.037C13.4341 12.037 12.8745 11.4918 12.8745 10.8193H13.6474C14.2423 10.8193 14.7272 10.3505 14.7487 9.76406C15.1228 9.9745 15.3745 10.3683 15.3745 10.8193C15.3745 11.4918 14.8149 12.037 14.1245 12.037Z" fill="white"/>
</svg>
