<svg width="24" height="24" viewBox="0 0 24 24" fill="none" xmlns="http://www.w3.org/2000/svg">
<path d="M11.7867 4.10843C11.8787 3.94036 12.1204 3.94043 12.2124 4.10843L14.2359 7.80765L16.5386 7.14066C16.7227 7.08729 16.8934 7.25869 16.8394 7.44241L16.1578 9.74515L19.8912 11.7871C20.0591 11.8792 20.0592 12.1209 19.8912 12.2129L16.191 14.2354L16.8394 16.4248C16.8938 16.6087 16.7228 16.78 16.5386 16.7266L14.2984 16.0762L12.2124 19.8916C12.1203 20.0594 11.8787 20.0595 11.7867 19.8916L9.69975 16.0762L7.45854 16.7266C7.27441 16.7799 7.10337 16.6087 7.15776 16.4248L7.80522 14.2344L4.10795 12.2129C3.94012 12.1208 3.94017 11.8793 4.10795 11.7871L7.8394 9.74612L7.15776 7.44241C7.10383 7.25877 7.27458 7.08744 7.45854 7.14066L9.76225 7.80862L11.7867 4.10843ZM12.2339 9.48343C12.1419 9.31518 11.9002 9.31518 11.8081 9.48343L10.9859 10.9864L9.48295 11.8086C9.3147 11.9006 9.3147 12.1424 9.48295 12.2344L10.9859 13.0567L11.8081 14.5606C11.9002 14.7284 12.1418 14.7284 12.2339 14.5606L13.0562 13.0567L14.5591 12.2344C14.7274 12.1424 14.7274 11.9006 14.5591 11.8086L13.0562 10.9864L12.2339 9.48343Z" fill="white"/>
</svg>
