<svg width="24" height="24" viewBox="0 0 24 24" fill="none" xmlns="http://www.w3.org/2000/svg">
<path fill-rule="evenodd" clip-rule="evenodd" d="M16.5378 4.34282L16.5934 9.22569L12.3345 11.2701L12.282 6.6598L16.5378 4.34282Z" fill="white"/>
<path fill-rule="evenodd" clip-rule="evenodd" d="M20.8078 12.037L16.5918 14.4485L12.3733 12.0331L16.5896 9.81841L20.8078 12.037Z" fill="white"/>
<path fill-rule="evenodd" clip-rule="evenodd" d="M11.6223 12.037L7.40624 14.4485L3.18774 12.0331L7.40406 9.81841L11.6223 12.037Z" fill="white"/>
<path fill-rule="evenodd" clip-rule="evenodd" d="M7.36114 4.3228L11.737 6.49002L11.6252 11.2129L7.49349 9.16662L7.36114 4.3228Z" fill="white"/>
<path fill-rule="evenodd" clip-rule="evenodd" d="M16.6569 19.6772L12.281 17.51L12.3929 12.7871L16.5245 14.8334L16.6569 19.6772Z" fill="white"/>
<path fill-rule="evenodd" clip-rule="evenodd" d="M7.51146 19.7211L7.45586 14.8383L11.7148 12.7938L11.7673 17.4042L7.51146 19.7211Z" fill="white"/>
</svg>
