<svg width="24" height="24" viewBox="0 0 24 24" fill="none" xmlns="http://www.w3.org/2000/svg">
<path d="M8.46922 4.00049C9.08818 4.00049 9.63711 4.32217 9.95261 4.80713C10.0007 4.80317 10.0491 4.8003 10.0981 4.80029C10.2121 4.80029 10.3238 4.8117 10.4321 4.83252C10.7558 4.48513 11.2177 4.26715 11.727 4.26709C12.4511 4.26709 13.0807 4.70652 13.3511 5.3335C13.3533 5.33349 13.3556 5.3335 13.3579 5.3335C13.4824 5.3335 13.6045 5.34586 13.7221 5.37061C14.0056 5.17864 14.3475 5.06694 14.7134 5.06689C15.4738 5.06689 16.1282 5.55243 16.3735 6.22998C16.5073 6.27587 16.6341 6.33674 16.7514 6.41162C17.0267 6.23591 17.353 6.13334 17.7016 6.1333C18.6681 6.1333 19.4663 6.9168 19.4663 7.8833V13.2944C19.4663 13.3437 19.4636 13.3933 19.4594 13.4419C19.3193 17.0851 16.034 19.9994 11.9995 19.9995C7.87592 19.9995 4.53295 16.955 4.53269 13.1997C4.53277 11.3865 5.3133 9.74003 6.58347 8.521C6.58031 10.2882 6.60994 12.1149 6.74754 12.0835C7.11637 11.9985 6.82607 6.51002 6.75925 5.32471C6.95264 4.56403 7.64965 4.00058 8.46922 4.00049Z" fill="white"/>
</svg>
