<svg width="24" height="24" viewBox="0 0 24 24" fill="none" xmlns="http://www.w3.org/2000/svg">
<path fill-rule="evenodd" clip-rule="evenodd" d="M9.65903 1.83708C5.87229 3.41948 3.45722 6.64821 3.01977 10.7128C2.91935 11.6448 2.64225 12.7243 2.40407 13.1117C1.81369 13.6795 1.87217 15.6604 2.56694 17.1782C6.02606 24.7346 19.3432 24.0829 21.5907 16.2472C22.0379 14.6881 22.2113 13.9975 21.6296 13.4508C21.3748 12.877 21.0732 11.6915 20.9599 10.8168C20.7126 8.90746 19.5814 6.26875 18.317 4.65041C16.416 2.21781 12.1023 0.816075 9.65903 1.83708ZM8.82555 7.64536C9.6016 8.64505 9.94459 10.5872 9.67158 12.4326L9.46352 13.8385H7.63653C6.00723 13.8385 5.78913 13.7612 5.6203 13.1228C5.25409 11.7376 5.443 9.53024 6.04175 8.19276C6.76853 6.56996 7.82921 6.36163 8.82555 7.64536ZM17.4449 7.41062C18.1815 8.2357 18.6723 10.9068 18.3635 12.4126L18.1036 13.6795H16.2349H14.3662V11.1196C14.3662 9.20454 14.5061 8.34352 14.9225 7.70038C15.5721 6.69687 16.6927 6.56805 17.4449 7.41062ZM7.51477 8.64346C7.20881 8.95326 7.25901 9.95518 7.59102 10.1629C8.07617 10.467 8.8745 9.98349 8.8745 9.38552C8.8745 9.07317 8.65107 8.73061 8.37806 8.62438C7.76362 8.38519 7.76927 8.38519 7.51477 8.64346ZM15.36 8.64346C15.054 8.95326 15.1042 9.95518 15.4363 10.1629C15.9214 10.467 16.7197 9.98349 16.7197 9.38552C16.7197 9.07317 16.4963 8.73061 16.2233 8.62438C15.6088 8.38519 15.6145 8.38519 15.36 8.64346ZM10.6003 15.1108C10.6003 15.2857 10.3023 15.4289 10.1297 15.4289C9.95715 15.4289 9.67158 15.2857 9.67158 15.1108C9.67158 14.9358 9.95715 14.7927 10.1297 14.7927C10.3023 14.7927 10.6003 14.9358 10.6003 15.1108ZM14.2093 15.1108C14.2093 15.2857 13.9974 15.4289 13.7385 15.4289C13.4797 15.4289 13.2678 15.2857 13.2678 15.1108C13.2678 14.9358 13.4797 14.7927 13.7385 14.7927C13.9974 14.7927 14.2093 14.9358 14.2093 15.1108ZM6.93454 16.2962C7.16299 16.6063 7.6042 17.2085 7.91488 17.634L8.47973 18.4079L9.1858 17.316C9.87336 16.2523 9.94428 16.225 11.909 16.2549C13.7881 16.2835 13.9852 16.3573 14.7851 17.328L15.6434 18.3704L16.4812 17.087C17.0414 16.2294 17.6335 15.7339 18.2671 15.5927C20.171 15.169 20.3681 16.127 18.7504 17.9419C15.7595 21.2972 9.95903 21.761 6.13181 18.9508C4.91047 18.0542 3.74467 16.183 4.0726 15.6451C4.34938 15.1909 6.47637 15.6747 6.93454 16.2962Z" fill="white"/>
</svg>
