<svg width="24" height="24" viewBox="0 0 24 24" fill="none" xmlns="http://www.w3.org/2000/svg">
<path d="M17.111 5.53053C17.111 5.53053 18.7771 14.5318 15.6374 17.6715C12.9291 20.3797 9.69688 20.3201 7.21492 18.6086L9.38113 15.9465L13.2274 15.1151L10.0882 14.8003L12.0832 12.7653L14.3544 12.2674L12.5583 11.7336L14.3544 8.48878L11.8001 11.3593L10.8133 9.96514L11.1606 12.2667L9.38182 14.2761L8.55663 11.7343V15.1151L6.31377 17.8856C6.23844 17.8156 6.16332 17.7448 6.09004 17.6715C3.52772 15.1092 3.63489 10.6633 6.60932 8.11037C9.57647 5.56387 17.0735 5.53068 17.111 5.53053Z" fill="white"/>
</svg>
