<svg width="24" height="24" viewBox="0 0 24 24" fill="none" xmlns="http://www.w3.org/2000/svg">
<path fill-rule="evenodd" clip-rule="evenodd" d="M17.839 16.9353C17.839 16.9353 15.956 18.4456 12.2089 17.8206C9.36599 17.3464 7.84974 14.2126 7.84974 12.5281C7.84974 8.5343 10.8057 7.62545 12.8041 7.62545C14.8025 7.62545 16.1061 9.57379 16.1061 11.0823C16.1061 12.5908 15.0392 13.9102 13.3788 13.9102C11.7185 13.9102 11.2267 12.7446 11.2267 11.6729C11.2267 10.6013 12.0938 10.2237 12.8845 10.2237C13.6752 10.2237 13.946 10.8988 13.946 11.479C13.946 12.0592 13.4958 12.267 13.1203 12.267C12.7448 12.267 12.5993 12.1729 12.564 11.8785C12.5287 11.5841 12.762 11.0133 12.2089 10.9259C11.6557 10.8385 11.5912 11.7074 11.5912 11.8785C11.5912 12.0496 11.7664 13.4644 13.3788 13.4355C14.9913 13.4067 15.7563 12.1601 15.534 10.9259C15.3117 9.69167 14.1139 8.38019 12.0117 8.6452C9.90954 8.91021 9.05125 11.0343 9.42957 13.3041C9.8079 15.574 12.5272 16.8892 14.6653 16.416C16.8033 15.9429 18.9328 14.395 18.9328 10.4705C18.9328 6.54602 15.534 4.18705 11.4811 4.57582C7.42825 4.96459 4.91242 8.50785 5.07346 12.7652C5.23449 17.0225 9.27418 19.3411 12.6902 19.4607C16.1061 19.5802 18.2003 17.6028 18.2003 17.6028C18.2003 17.6028 18.6712 17.1828 18.4866 16.8548C18.3019 16.5269 17.839 16.9353 17.839 16.9353Z" fill="white"/>
</svg>
