<svg width="24" height="24" viewBox="0 0 24 24" fill="none" xmlns="http://www.w3.org/2000/svg">
<path d="M15.2169 12.5682C15.3007 12.5111 15.4153 12.5329 15.4718 12.617L16.8624 14.6883C16.9175 14.7702 16.8977 14.8808 16.8175 14.9383L12.796 17.823C12.7488 17.8567 12.6881 17.8655 12.633 17.8475L9.16225 16.7107L15.2169 12.5682ZM15.6583 6.16972C15.7699 6.16972 15.8555 6.2693 15.839 6.37968L15.1007 11.3357C15.0933 11.3857 15.0652 11.4301 15.0236 11.4588L7.88295 16.3895C7.8361 16.4217 7.77688 16.4295 7.7228 16.4119L4.67299 15.4148C4.59804 15.3903 4.54717 15.3208 4.54702 15.242V12.1102C4.54713 12.0678 4.56195 12.0266 4.58901 11.9939L9.36245 6.23613C9.39715 6.19441 9.44879 6.16972 9.50307 6.16972H15.6583ZM17.2033 6.14336C17.283 6.14336 17.3541 6.1953 17.3781 6.27129L19.4435 12.8113C19.4664 12.884 19.442 12.9636 19.382 13.0105L18.0431 14.0555C17.9619 14.1185 17.8442 14.1022 17.7833 14.0193L16.1222 11.7557C16.093 11.7157 16.0806 11.6657 16.089 11.617L17.0021 6.29472C17.0173 6.20739 17.0931 6.14353 17.1818 6.14336H17.2033Z" fill="white"/>
</svg>
