<svg width="24" height="24" viewBox="0 0 24 24" fill="none" xmlns="http://www.w3.org/2000/svg">
<path d="M18.8492 16.0501L6.79923 3.95009L11.9992 2.00009L19.9992 5.00009V11.1001C19.9992 11.9501 19.9034 12.7918 19.7117 13.6251C19.5201 14.4584 19.2326 15.2668 18.8492 16.0501ZM19.7992 22.6001L16.5492 19.3501C15.9159 20.0001 15.2117 20.5459 14.4367 20.9876C13.6617 21.4293 12.8492 21.7668 11.9992 22.0001C9.68256 21.4168 7.77006 20.0876 6.26173 18.0126C4.7534 15.9376 3.99923 13.6334 3.99923 11.1001V6.80009L1.39923 4.20009L2.79923 2.80009L21.1992 21.2001L19.7992 22.6001Z" fill="white"/>
</svg>
