<svg width="24" height="24" viewBox="0 0 24 24" fill="none" xmlns="http://www.w3.org/2000/svg">
<path d="M19.05 21.6L16.125 18.7L13.925 20.9L13.225 20.2C12.8417 19.8167 12.65 19.3417 12.65 18.775C12.65 18.2083 12.8417 17.7333 13.225 17.35L17.45 13.125C17.8333 12.7417 18.3083 12.55 18.875 12.55C19.4417 12.55 19.9167 12.7417 20.3 13.125L21 13.825L18.8 16.025L21.7 18.95C21.9 19.15 22 19.3833 22 19.65C22 19.9167 21.9 20.15 21.7 20.35L20.45 21.6C20.25 21.8 20.0167 21.9 19.75 21.9C19.4833 21.9 19.25 21.8 19.05 21.6ZM22 5.89999L10.65 17.25L10.775 17.35C11.1583 17.7333 11.35 18.2083 11.35 18.775C11.35 19.3417 11.1583 19.8167 10.775 20.2L10.075 20.9L7.875 18.7L4.95 21.6C4.75 21.8 4.51667 21.9 4.25 21.9C3.98333 21.9 3.75 21.8 3.55 21.6L2.3 20.35C2.1 20.15 2 19.9167 2 19.65C2 19.3833 2.1 19.15 2.3 18.95L5.2 16.025L3 13.825L3.7 13.125C4.08333 12.7417 4.55833 12.55 5.125 12.55C5.69167 12.55 6.16667 12.7417 6.55 13.125L6.65 13.25L18 1.89999H22V5.89999ZM6.95 10.85L2 5.89999V1.89999H6L10.95 6.84999L6.95 10.85Z" fill="white"/>
</svg>
