<svg width="24" height="24" viewBox="0 0 24 24" fill="none" xmlns="http://www.w3.org/2000/svg">
<path d="M10.475 22C10.0083 22 9.57082 21.9 9.16249 21.7C8.75415 21.5 8.40832 21.2167 8.12499 20.85L2.67499 13.925L3.14999 13.425C3.48332 13.075 3.88332 12.8667 4.34999 12.8C4.81665 12.7333 5.24999 12.825 5.64999 13.075L7.49999 14.2V6C7.49999 5.71667 7.59582 5.47917 7.78749 5.2875C7.97915 5.09583 8.21665 5 8.49999 5C8.78332 5 9.02499 5.09583 9.22499 5.2875C9.42499 5.47917 9.52499 5.71667 9.52499 6V11H17C17.8333 11 18.5417 11.2917 19.125 11.875C19.7083 12.4583 20 13.1667 20 14V18C20 19.1 19.6083 20.0417 18.825 20.825C18.0417 21.6083 17.1 22 16 22H10.475ZM4.17499 8.5C3.95832 8.13333 3.79165 7.7375 3.67499 7.3125C3.55832 6.8875 3.49999 6.45 3.49999 6C3.49999 4.61667 3.98749 3.4375 4.96249 2.4625C5.93749 1.4875 7.11665 1 8.49999 1C9.88332 1 11.0625 1.4875 12.0375 2.4625C13.0125 3.4375 13.5 4.61667 13.5 6C13.5 6.45 13.4417 6.8875 13.325 7.3125C13.2083 7.7375 13.0417 8.13333 12.825 8.5L11.1 7.5C11.2333 7.26667 11.3333 7.02917 11.4 6.7875C11.4667 6.54583 11.5 6.28333 11.5 6C11.5 5.16667 11.2083 4.45833 10.625 3.875C10.0417 3.29167 9.33332 3 8.49999 3C7.66665 3 6.95832 3.29167 6.37499 3.875C5.79165 4.45833 5.49999 5.16667 5.49999 6C5.49999 6.28333 5.53332 6.54583 5.59999 6.7875C5.66665 7.02917 5.76665 7.26667 5.89999 7.5L4.17499 8.5Z" fill="white"/>
</svg>
